<svg xmlns="http://www.w3.org/2000/svg" width="16" height="15"><path d="M15.94 0a.167.167 0 00-.18-.01L.08 7.94a.156.156 0 00-.08.15.15.15 0 00.11.14L5.07 9.8a.2.2 0 00.16-.04l7.54-6.39-5.79 6.8a.14.14 0 00-.03.15.157.157 0 00.1.11l5.83 1.76h.04a.188.188 0 00.08-.02.159.159 0 00.08-.1L15.99.17a.177.177 0 00-.05-.17zM8.76 12.16l-1.61-.49a.206.206 0 00-.15.03.161.161 0 00-.06.13v3.01a.159.159 0 00.12.15.06.06 0 00.04.01.172.172 0 00.14-.08l1.61-2.52a.169.169 0 00.01-.14.165.165 0 00-.1-.1z" fill="#fff" fill-rule="evenodd"/></svg>