<svg xmlns="http://www.w3.org/2000/svg" width="16" height="15.65"><path d="M13.3 13.61c-.6-.04-1.29-.07-2.033-.1a6.866 6.866 0 001.671-2.25 1.561 1.561 0 00.75.43 1.669 1.669 0 00.382.05 1.555 1.555 0 00.832-.24 1.631 1.631 0 00.536-2.23 1.589 1.589 0 00-1.758-.72c.029-.29.048-.59.048-.89a.559.559 0 00-.559-.56H2.829a.56.56 0 00-.559.56 7.754 7.754 0 002.458 5.85c-.741.03-1.429.06-2.03.1-2.091.15-2.7.29-2.7.94s.608.79 2.7.93c1.418.1 3.3.16 5.3.16s3.883-.06 5.3-.16c2.092-.14 2.7-.29 2.7-.93s-.606-.79-2.698-.94zm.268-4.3h.013a.926.926 0 011.285.31.96.96 0 01.11.72.942.942 0 01-.422.58.928.928 0 01-1.285-.32.213.213 0 01-.04-.04 8.514 8.514 0 00.339-1.25zM3.408 8.23h9.183c-.22 3.04-2.2 5.43-4.592 5.43s-4.371-2.39-4.591-5.43zm3.555-2.28H7a.457.457 0 00.355-.18.452.452 0 00.067-.43 3.2 3.2 0 01.123-2.3A2.941 2.941 0 008.117.67 1.059 1.059 0 007.452 0a.446.446 0 00-.557.3.455.455 0 00.283.56.211.211 0 01.1.12 2.069 2.069 0 01-.483 1.57l-.022.03a3.85 3.85 0 01-.146.24c-.681 1.05-.885 1.89-.606 2.47a1.229 1.229 0 00.942.66zm2.385.08h.031a.429.429 0 00.333-.16.435.435 0 00.063-.41 1.831 1.831 0 01.064-1.29 1.9 1.9 0 00.363-1.58.762.762 0 00-.5-.5.427.427 0 00-.523.28.44.44 0 00.034.33.4.4 0 00.249.2.119.119 0 01-.046-.01 1.16 1.16 0 01-.281.82l-.026.05q-.036.06-.078.12a1.753 1.753 0 00-.382 1.66.869.869 0 00.699.49z" fill="#fff" fill-rule="evenodd"/></svg>