<svg xmlns="http://www.w3.org/2000/svg" width="11.657" height="16"><path d="M11.564 13.99L8.499 5.7V3.26a1.477 1.477 0 00.994-1.39v-.4A1.476 1.476 0 008.014 0h-4.37a1.477 1.477 0 00-1.479 1.47v.4a1.475 1.475 0 001 1.39V5.7L.106 13.97A1.473 1.473 0 001.476 16h8.722a1.471 1.471 0 001.227-.65 1.452 1.452 0 00.139-1.36zm-8.111-1.88a.5.5 0 11.5.5.5.5 0 01-.5-.5zm3.25.44a.865.865 0 11-.871.86.862.862 0 01.871-.86zm-.742-1.9a.628.628 0 11.629.62.628.628 0 01-.629-.62zM4.133 5.87v-3.5h-.489a.5.5 0 01-.5-.5v-.4a.5.5 0 01.5-.5h4.375a.5.5 0 01.5.5v.4a.506.506 0 01-.5.5h-.49v3.5l.859 2.32-.034.03c-.639.66-5.308.74-5.308.74h-.045zm1.353 1.87a.675.675 0 10-.682-.67.676.676 0 00.682.67z" fill="#fff" fill-rule="evenodd"/></svg>