<svg xmlns="http://www.w3.org/2000/svg" viewBox="0 0 137.145 137.145" width="40" height="40"><path d="M37.711 89.198l30.861-28.835-10.287-9.612-30.861 28.835 10.287 9.612zM109.715 0H27.429C12.28 0 0 12.281 0 27.429v82.287c0 15.148 12.28 27.429 27.429 27.429h82.286c15.149 0 27.429-12.28 27.429-27.429V27.429C137.144 12.281 124.864 0 109.715 0zm13.715 102.858c0 11.361-9.21 20.572-20.572 20.572H34.286c-11.361 0-20.571-9.211-20.571-20.572V34.286c0-11.361 9.21-20.572 20.571-20.572h68.572c11.361 0 20.572 9.211 20.572 20.572v68.572zM58.285 50.751l41.148 38.447 10.287-9.612L68.572 41.14l-10.287 9.611z"/></svg>