<svg xmlns="http://www.w3.org/2000/svg" width="16" height="16"><path d="M14.663 4H8.987l2.239-2.69a.375.375 0 00.1.02.665.665 0 10-.667-.66.617.617 0 00.046.22L8.115 4h-.243L5.283.89a.639.639 0 00.045-.22.667.667 0 10-.667.66.369.369 0 00.1-.02L7 4H1.324A1.334 1.334 0 00-.008 5.33v9.34A1.328 1.328 0 001.324 16h13.331a1.328 1.328 0 001.333-1.33V5.33A1.335 1.335 0 0014.663 4zM12 13.34a1.335 1.335 0 01-1.334 1.33h-8a1.335 1.335 0 01-1.334-1.33V6.67a1.338 1.338 0 011.334-1.34h8A1.337 1.337 0 0112 6.67v6.67zm1.964-5.96a.955.955 0 11.951-.96.956.956 0 01-.954.96z" fill="#fff" fill-rule="evenodd"/></svg>