<svg xmlns="http://www.w3.org/2000/svg"><defs><symbol viewBox="0 0 16 16" id="Shape128"><path class="cls-1" d="M411.663 1509h-5.676l2.239-2.69a.375.375 0 00.1.02.665.665 0 10-.667-.66.617.617 0 00.046.22l-2.59 3.11h-.243l-2.589-3.11a.639.639 0 00.045-.22.667.667 0 10-.667.66.369.369 0 00.1-.02L404 1509h-5.676a1.334 1.334 0 00-1.332 1.33v9.34a1.328 1.328 0 001.332 1.33h13.331a1.328 1.328 0 001.333-1.33v-9.34a1.335 1.335 0 00-1.325-1.33zm-2.663 9.34a1.335 1.335 0 01-1.334 1.33h-8a1.335 1.335 0 01-1.334-1.33v-6.67a1.338 1.338 0 011.334-1.34h8a1.337 1.337 0 011.334 1.34v6.67zm1.964-5.96a.955.955 0 11.951-.96.956.956 0 01-.954.96z" transform="translate(-397 -1505)" fill="#fff" fill-rule="evenodd"/></symbol><symbol viewBox="0 0 16 15.65" id="Shape153"><path class="cls-1" d="M650.3 1519.3c-.6-.04-1.29-.07-2.033-.1a6.866 6.866 0 001.671-2.25 1.561 1.561 0 00.75.43 1.669 1.669 0 00.382.05 1.555 1.555 0 00.832-.24 1.631 1.631 0 00.536-2.23 1.589 1.589 0 00-1.758-.72c.029-.29.048-.59.048-.89a.559.559 0 00-.559-.56h-10.34a.56.56 0 00-.559.56 7.754 7.754 0 002.458 5.85c-.741.03-1.429.06-2.03.1-2.091.15-2.7.29-2.7.94s.608.79 2.7.93c1.418.1 3.3.16 5.3.16s3.883-.06 5.3-.16c2.092-.14 2.7-.29 2.7-.93s-.606-.79-2.698-.94zm.268-4.3h.013a.926.926 0 011.285.31.96.96 0 01.11.72.942.942 0 01-.422.58.928.928 0 01-1.285-.32.213.213 0 01-.04-.04 8.514 8.514 0 00.339-1.25zm-10.16-1.08h9.183c-.22 3.04-2.2 5.43-4.592 5.43s-4.371-2.39-4.591-5.43zm3.555-2.28H644a.457.457 0 00.355-.18.452.452 0 00.067-.43 3.2 3.2 0 01.123-2.3 2.941 2.941 0 00.572-2.37 1.059 1.059 0 00-.665-.67.446.446 0 00-.557.3.455.455 0 00.283.56.211.211 0 01.1.12 2.069 2.069 0 01-.483 1.57l-.022.03a3.85 3.85 0 01-.146.24c-.681 1.05-.885 1.89-.606 2.47a1.229 1.229 0 00.942.66zm2.385.08h.031a.429.429 0 00.333-.16.435.435 0 00.063-.41 1.831 1.831 0 01.064-1.29 1.9 1.9 0 00.363-1.58.762.762 0 00-.5-.5.427.427 0 00-.523.28.44.44 0 00.034.33.4.4 0 00.249.2.119.119 0 01-.046-.01 1.16 1.16 0 01-.281.82l-.026.05q-.036.06-.078.12a1.753 1.753 0 00-.382 1.66.869.869 0 00.699.49z" transform="translate(-637 -1505.69)" fill="#fff" fill-rule="evenodd"/></symbol><symbol viewBox="0 0 11.657 16" id="Shape155"><path class="cls-1" d="M891.22 1519.99l-3.065-8.29v-2.44a1.477 1.477 0 00.994-1.39v-.4a1.476 1.476 0 00-1.479-1.47h-4.37a1.477 1.477 0 00-1.479 1.47v.4a1.475 1.475 0 001 1.39v2.44l-3.059 8.27a1.473 1.473 0 001.37 2.03h8.722a1.471 1.471 0 001.227-.65 1.452 1.452 0 00.139-1.36zm-8.111-1.88a.5.5 0 11.5.5.5.5 0 01-.5-.5zm3.25.44a.865.865 0 11-.871.86.862.862 0 01.871-.86zm-.742-1.9a.628.628 0 11.629.62.628.628 0 01-.629-.62zm-1.828-4.78v-3.5h-.489a.5.5 0 01-.5-.5v-.4a.5.5 0 01.5-.5h4.375a.5.5 0 01.5.5v.4a.506.506 0 01-.5.5h-.49v3.5l.859 2.32-.034.03c-.639.66-5.308.74-5.308.74h-.045zm1.353 1.87a.675.675 0 10-.682-.67.676.676 0 00.682.67z" transform="translate(-879.656 -1506)" fill="#fff" fill-rule="evenodd"/></symbol><symbol viewBox="0 0 16 15" id="Shape170"><path class="cls-1" d="M1131.44 1507.53a.167.167 0 00-.18-.01l-15.68 7.95a.156.156 0 00-.08.15.15.15 0 00.11.14l4.96 1.57a.2.2 0 00.16-.04l7.54-6.39-5.79 6.8a.14.14 0 00-.03.15.157.157 0 00.1.11l5.83 1.76h.04a.188.188 0 00.08-.02.159.159 0 00.08-.1l2.91-11.9a.177.177 0 00-.05-.17zm-7.18 12.16l-1.61-.49a.206.206 0 00-.15.03.161.161 0 00-.06.13v3.01a.159.159 0 00.12.15.06.06 0 00.04.01.172.172 0 00.14-.08l1.61-2.52a.169.169 0 00.01-.14.165.165 0 00-.1-.1z" transform="translate(-1115.5 -1507.53)" fill="#fff" fill-rule="evenodd"/></symbol><symbol viewBox="0 0 30 55" id="arrow"><path id="arrow_Forma_1_copy" data-name="Forma 1 copy" class="cls-1" d="M500.481 1062.99L529 1035.5l-28.515-27.49-1.485 1.51 26.946 25.98L499 1061.48z" transform="translate(-499 -1008)" fill="#fff" fill-rule="evenodd" opacity=".5"/></symbol><symbol viewBox="0 0 137.145 137.145" id="scrollTop"><path d="M37.711 89.198l30.861-28.835-10.287-9.612-30.861 28.835 10.287 9.612zM109.715 0H27.429C12.28 0 0 12.281 0 27.429v82.287c0 15.148 12.28 27.429 27.429 27.429h82.286c15.149 0 27.429-12.28 27.429-27.429V27.429C137.144 12.281 124.864 0 109.715 0zm13.715 102.858c0 11.361-9.21 20.572-20.572 20.572H34.286c-11.361 0-20.571-9.211-20.571-20.572V34.286c0-11.361 9.21-20.572 20.571-20.572h68.572c11.361 0 20.572 9.211 20.572 20.572v68.572zM58.285 50.751l41.148 38.447 10.287-9.612L68.572 41.14l-10.287 9.611z"/></symbol></defs></svg>