<svg xmlns="http://www.w3.org/2000/svg" width="11.657" height="16" viewBox="0 0 11.657 16">
  <metadata><?xpacket begin="﻿" id="W5M0MpCehiHzreSzNTczkc9d"?>
<x:xmpmeta xmlns:x="adobe:ns:meta/" x:xmptk="Adobe XMP Core 5.6-c142 79.160924, 2017/07/13-01:06:39        ">
   <rdf:RDF xmlns:rdf="http://www.w3.org/1999/02/22-rdf-syntax-ns#">
      <rdf:Description rdf:about=""/>
   </rdf:RDF>
</x:xmpmeta>
                                                                                                    
                                                                                                    
                                                                                                    
                                                                                                    
                                                                                                    
                                                                                                    
                                                                                                    
                                                                                                    
                                                                                                    
                                                                                                    
                                                                                                    
                                                                                                    
                                                                                                    
                                                                                                    
                                                                                                    
                                                                                                    
                                                                                                    
                                                                                                    
                                                                                                    
                                                                                                    
                           
<?xpacket end="w"?></metadata>
<defs>
    <style>
      .cls-1 {
        fill: #fff;
        fill-rule: evenodd;
      }
    </style>
  </defs>
  <path class="cls-1" d="M891.22,1519.99l-3.065-8.29v-2.44a1.477,1.477,0,0,0,.994-1.39v-0.4a1.476,1.476,0,0,0-1.479-1.47H883.3a1.477,1.477,0,0,0-1.479,1.47v0.4a1.475,1.475,0,0,0,1,1.39v2.44l-3.059,8.27a1.473,1.473,0,0,0,1.37,2.03h8.722a1.471,1.471,0,0,0,1.227-.65A1.452,1.452,0,0,0,891.22,1519.99Zm-8.111-1.88a0.5,0.5,0,1,1,.5.5A0.5,0.5,0,0,1,883.109,1518.11Zm3.25,0.44a0.865,0.865,0,1,1-.871.86A0.862,0.862,0,0,1,886.359,1518.55Zm-0.742-1.9a0.628,0.628,0,1,1,.629.62A0.628,0.628,0,0,1,885.617,1516.65Zm-1.828-4.78v-3.02l0-.48H883.3a0.5,0.5,0,0,1-.5-0.5v-0.4a0.5,0.5,0,0,1,.5-0.5h4.375a0.5,0.5,0,0,1,.5.5v0.4a0.506,0.506,0,0,1-.5.5h-0.49v3.5l0.859,2.32-0.034.03c-0.639.66-5.308,0.74-5.308,0.74h-0.045Zm1.353,1.87a0.675,0.675,0,1,0-.682-0.67A0.676,0.676,0,0,0,885.142,1513.74Z" transform="translate(-879.656 -1506)"/>
</svg>
