<svg xmlns="http://www.w3.org/2000/svg" width="16" height="15" viewBox="0 0 16 15">
  <metadata><?xpacket begin="﻿" id="W5M0MpCehiHzreSzNTczkc9d"?>
<x:xmpmeta xmlns:x="adobe:ns:meta/" x:xmptk="Adobe XMP Core 5.6-c142 79.160924, 2017/07/13-01:06:39        ">
   <rdf:RDF xmlns:rdf="http://www.w3.org/1999/02/22-rdf-syntax-ns#">
      <rdf:Description rdf:about=""/>
   </rdf:RDF>
</x:xmpmeta>
                                                                                                    
                                                                                                    
                                                                                                    
                                                                                                    
                                                                                                    
                                                                                                    
                                                                                                    
                                                                                                    
                                                                                                    
                                                                                                    
                                                                                                    
                                                                                                    
                                                                                                    
                                                                                                    
                                                                                                    
                                                                                                    
                                                                                                    
                                                                                                    
                                                                                                    
                                                                                                    
                           
<?xpacket end="w"?></metadata>
<defs>
    <style>
      .cls-1 {
        fill: #fff;
        fill-rule: evenodd;
      }
    </style>
  </defs>
  <path class="cls-1" d="M1131.44,1507.53a0.167,0.167,0,0,0-.18-0.01l-15.68,7.95a0.156,0.156,0,0,0-.08.15,0.15,0.15,0,0,0,.11.14l4.96,1.57a0.2,0.2,0,0,0,.16-0.04l7.54-6.39-5.79,6.8a0.14,0.14,0,0,0-.03.15,0.157,0.157,0,0,0,.1.11l5.83,1.76h0.04a0.188,0.188,0,0,0,.08-0.02,0.159,0.159,0,0,0,.08-0.1l2.91-11.9A0.177,0.177,0,0,0,1131.44,1507.53Zm-7.18,12.16-1.61-.49a0.206,0.206,0,0,0-.15.03,0.161,0.161,0,0,0-.06.13v3.01a0.159,0.159,0,0,0,.12.15,0.06,0.06,0,0,0,.04.01,0.172,0.172,0,0,0,.14-0.08l1.61-2.52a0.169,0.169,0,0,0,.01-0.14A0.165,0.165,0,0,0,1124.26,1519.69Z" transform="translate(-1115.5 -1507.53)"/>
</svg>
