<svg xmlns="http://www.w3.org/2000/svg" width="16" height="15.65" viewBox="0 0 16 15.65">
  <metadata><?xpacket begin="﻿" id="W5M0MpCehiHzreSzNTczkc9d"?>
<x:xmpmeta xmlns:x="adobe:ns:meta/" x:xmptk="Adobe XMP Core 5.6-c142 79.160924, 2017/07/13-01:06:39        ">
   <rdf:RDF xmlns:rdf="http://www.w3.org/1999/02/22-rdf-syntax-ns#">
      <rdf:Description rdf:about=""/>
   </rdf:RDF>
</x:xmpmeta>
                                                                                                    
                                                                                                    
                                                                                                    
                                                                                                    
                                                                                                    
                                                                                                    
                                                                                                    
                                                                                                    
                                                                                                    
                                                                                                    
                                                                                                    
                                                                                                    
                                                                                                    
                                                                                                    
                                                                                                    
                                                                                                    
                                                                                                    
                                                                                                    
                                                                                                    
                                                                                                    
                           
<?xpacket end="w"?></metadata>
<defs>
    <style>
      .cls-1 {
        fill: #fff;
        fill-rule: evenodd;
      }
    </style>
  </defs>
  <path class="cls-1" d="M650.3,1519.3c-0.6-.04-1.29-0.07-2.033-0.1a6.866,6.866,0,0,0,1.671-2.25,1.561,1.561,0,0,0,.75.43,1.669,1.669,0,0,0,.382.05,1.555,1.555,0,0,0,.832-0.24,1.631,1.631,0,0,0,.536-2.23,1.589,1.589,0,0,0-1.758-.72c0.029-.29.048-0.59,0.048-0.89a0.559,0.559,0,0,0-.559-0.56h-10.34a0.56,0.56,0,0,0-.559.56,7.754,7.754,0,0,0,2.458,5.85c-0.741.03-1.429,0.06-2.03,0.1-2.091.15-2.7,0.29-2.7,0.94s0.608,0.79,2.7.93c1.418,0.1,3.3.16,5.3,0.16s3.883-.06,5.3-0.16c2.092-.14,2.7-0.29,2.7-0.93S652.392,1519.45,650.3,1519.3Zm0.268-4.3h0.013a0.926,0.926,0,0,1,1.285.31,0.96,0.96,0,0,1,.11.72,0.942,0.942,0,0,1-.422.58,0.928,0.928,0,0,1-1.285-.32,0.213,0.213,0,0,1-.04-0.04A8.514,8.514,0,0,0,650.568,1515Zm-10.16-1.08h9.183c-0.22,3.04-2.2,5.43-4.592,5.43S640.628,1516.96,640.408,1513.92Zm3.555-2.28H644a0.457,0.457,0,0,0,.355-0.18,0.452,0.452,0,0,0,.067-0.43,3.2,3.2,0,0,1,.123-2.3,2.941,2.941,0,0,0,.572-2.37,1.059,1.059,0,0,0-.665-0.67,0.446,0.446,0,0,0-.557.3,0.455,0.455,0,0,0,.283.56,0.211,0.211,0,0,1,.1.12,2.069,2.069,0,0,1-.483,1.57l-0.022.03c-0.045.08-.093,0.16-0.146,0.24-0.681,1.05-.885,1.89-0.606,2.47A1.229,1.229,0,0,0,643.963,1511.64Zm2.385,0.08h0.031a0.429,0.429,0,0,0,.333-0.16,0.435,0.435,0,0,0,.063-0.41,1.831,1.831,0,0,1,.064-1.29,1.9,1.9,0,0,0,.363-1.58,0.762,0.762,0,0,0-.5-0.5,0.427,0.427,0,0,0-.523.28,0.44,0.44,0,0,0,.034.33,0.4,0.4,0,0,0,.249.2,0.119,0.119,0,0,1-.046-0.01,1.16,1.16,0,0,1-.281.82l-0.026.05q-0.036.06-.078,0.12a1.753,1.753,0,0,0-.382,1.66A0.869,0.869,0,0,0,646.348,1511.72Z" transform="translate(-637 -1505.69)"/>
</svg>
