<svg xmlns="http://www.w3.org/2000/svg" width="16" height="16" viewBox="0 0 16 16">
  <metadata><?xpacket begin="﻿" id="W5M0MpCehiHzreSzNTczkc9d"?>
<x:xmpmeta xmlns:x="adobe:ns:meta/" x:xmptk="Adobe XMP Core 5.6-c142 79.160924, 2017/07/13-01:06:39        ">
   <rdf:RDF xmlns:rdf="http://www.w3.org/1999/02/22-rdf-syntax-ns#">
      <rdf:Description rdf:about=""/>
   </rdf:RDF>
</x:xmpmeta>
                                                                                                    
                                                                                                    
                                                                                                    
                                                                                                    
                                                                                                    
                                                                                                    
                                                                                                    
                                                                                                    
                                                                                                    
                                                                                                    
                                                                                                    
                                                                                                    
                                                                                                    
                                                                                                    
                                                                                                    
                                                                                                    
                                                                                                    
                                                                                                    
                                                                                                    
                                                                                                    
                           
<?xpacket end="w"?></metadata>
<defs>
    <style>
      .cls-1 {
        fill: #fff;
        fill-rule: evenodd;
      }
    </style>
  </defs>
  <path class="cls-1" d="M411.663,1509h-5.676l2.239-2.69a0.375,0.375,0,0,0,.1.02,0.665,0.665,0,1,0-.667-0.66,0.617,0.617,0,0,0,.046.22l-2.59,3.11h-0.243l-2.589-3.11a0.639,0.639,0,0,0,.045-0.22,0.667,0.667,0,1,0-.667.66,0.369,0.369,0,0,0,.1-0.02l2.239,2.69h-5.676a1.334,1.334,0,0,0-1.332,1.33v9.34a1.328,1.328,0,0,0,1.332,1.33h13.331a1.328,1.328,0,0,0,1.333-1.33v-9.34A1.335,1.335,0,0,0,411.663,1509ZM409,1518.34a1.335,1.335,0,0,1-1.334,1.33h-8a1.335,1.335,0,0,1-1.334-1.33v-6.67a1.338,1.338,0,0,1,1.334-1.34h8a1.337,1.337,0,0,1,1.334,1.34v6.67Zm1.964-5.96a0.955,0.955,0,1,1,.951-0.96A0.956,0.956,0,0,1,410.961,1512.38Z" transform="translate(-397 -1505)"/>
</svg>
